Daddy's Dyin'... Who's Got the Will 1990 DVDRip XviD{scenetime}

===================================================================================

www.imdb.com/title/tt0099342/

===================================================================================

General

Format                           : AVI
Format/Info                      : Audio Video Interleave
Format profile                   : OpenDML
File size                        : 1.07 GiB
Duration                         : 1h 35mn
Overall bit rate                 : 1 592 Kbps
Movie name                       : Daddy's Dyin'... Who's Got the Will.Title1.DVDRip
Writing application              : Lavf53.21.0
Original source form/Name        : Daddy's Dyin'... Who's Got the Will
Original Source                  :

Video
ID                               : 0
Format                           : MPEG-4 Visual
Format profile                   : Advanced Simple@L5
Format settings, BVOP            : 2
Format settings, QPel            : No
Format settings, GMC             : No warppoints
Format settings, Matrix          : Default (H.263)
Muxing mode                      : Packed bitstream
Codec ID                         : XVID
Codec ID/Hint                    : XviD
Duration                         : 1h 35mn
Bit rate                         : 170 Kbps
Width                            : 720 pixels
Height                           : 402 pixels
Display aspect ratio             : 16:9
Frame rate                       : 23.976 fps
Color space                      : YUV
Chroma subsampling               : 4:2:0
Bit depth                        : 8 bits
Scan type                        : Progressive
Compression mode                 : Lossy
Bits/(Pixel*Frame)               : 0.024
Stream size                      : 116 MiB (11%)
Writing library                  : XviD 1.2.1 (UTC 2008-12-04)

Audio
ID                               : 1
Format                           : AC-3
Format/Info                      : Audio Coding 3
Mode extension                   : CM (complete main)
Codec ID                         : 2000
Duration                         : 1h 35mn
Bit rate mode                    : Constant
Bit rate                         : 192 Kbps
Channel(s)                       : 2 channels
Channel positions                : Front: L R
Sampling rate                    : 48.0 KHz
Bit depth                        : 16 bits
Compression mode                 : Lossy
Stream size                      : 5.99 MiB (1%)
Alignment                        : Aligned on interleaves
Interleave, duration             : 74 ms (1.77 video frames)

===================================================================================